<?xml version="1.0" encoding="utf-8"?>
<!-- Generator: Adobe Illustrator 26.0.1, SVG Export Plug-In . SVG Version: 6.00 Build 0)  -->
<svg version="1.1" id="Layer_1" xmlns="http://www.w3.org/2000/svg" xmlns:xlink="http://www.w3.org/1999/xlink" x="0px" y="0px"
	 viewBox="0 0 256 256" style="enable-background:new 0 0 256 256;" xml:space="preserve">
<style type="text/css">
	.st0{fill:#FFFFFF;}
	.st1{fill:url(#SVGID_1_);}
</style>
<g>
	<path class="st0" d="M177.21,65.32l-74.48,92.2c-16.77-10.56-27.92-29.24-27.92-50.53c0-3.78,0.36-7.48,1.03-11.06
		c2.96,1.85,6.45,2.92,10.2,2.92c10.64,0,19.26-8.62,19.26-19.26c0-7.48-4.27-13.97-10.51-17.15c10.55-9.4,24.45-15.12,39.7-15.12
		c6.66,0,13.07,1.1,19.05,3.11c0.69,0.23,1.38,0.48,2.06,0.73c2.03,0.61,4.18,0.94,6.4,0.94c12.27,0,22.21-9.94,22.21-22.21
		c0-0.07,0-0.13,0-0.2c-0.42-0.32-0.68-0.5-0.68-0.5c-11.13-7.42-24-12.44-37.85-14.35c-4.11-0.57-8.29-0.87-12.55-0.87
		c-50.28,0-91.04,40.76-91.04,91.04s40.76,91.04,91.04,91.04c50.28,0,91.04-40.76,91.04-91.04
		C224.16,87.72,175.71,63.79,177.21,65.32z"/>
	<g>
		<path class="st0" d="M168.73,9.27c0.81,0.29,1.61,0.59,2.41,0.91C170.36,9.83,169.55,9.52,168.73,9.27z"/>
		<linearGradient id="SVGID_1_" gradientUnits="userSpaceOnUse" x1="29.1229" y1="128.044" x2="246.4255" y2="128.044">
			<stop  offset="0" style="stop-color:#00FFBF;stop-opacity:0.98"/>
			<stop  offset="0.1702" style="stop-color:#00FABD;stop-opacity:0.9834"/>
			<stop  offset="0.3694" style="stop-color:#00ECB9;stop-opacity:0.9874"/>
			<stop  offset="0.5832" style="stop-color:#00D4B1;stop-opacity:0.9917"/>
			<stop  offset="0.8055" style="stop-color:#00B4A7;stop-opacity:0.9961"/>
			<stop  offset="1" style="stop-color:#00919C"/>
		</linearGradient>
		<path class="st1" d="M234.91,95.81c-2.15-11.75-8.45-22.77-16.96-29.2c-19.67-14.85-47.75-10.93-62.6,8.74
			c-0.03,0.04-0.06,0.08-0.09,0.13L82.61,177.04c-22.57-16.16-37.3-42.6-37.3-72.41c0-49.08,39.93-89.02,89.02-89.02
			c3.85,0,7.52,0.18,11.08,0.55c11.9,1.23,22.42,4.64,33.08,11.2c2.01,1.12,3.96,2.61,5.68,4.28c0.03-0.45,0.05-0.91,0.05-1.37
			c0-8.97-5.38-16.68-13.08-20.09c-0.8-0.31-1.6-0.61-2.41-0.91c-10.89-3.93-22.51-6.02-34.4-6.02
			c-55.9,0-101.38,45.48-101.38,101.38c0,33.95,16.78,64.06,42.47,82.47l-46.3,65.75l19.39-5.38c25.19-6.99,47.07-22.71,61.73-44.35
			v0c7.72,1.89,15.79,2.89,24.09,2.89c27.01,0,52.48-10.83,71.71-30.49c17.82-18.22,28.18-42.66,29.49-67.79
			c5.58-1.42,9.79-5.53,10.89-11.63C241.48,95.94,234.91,95.81,234.91,95.81z M142.97,193.21c3.06-43.83,37.01-79.28,80.16-84.68
			C220.54,153.01,186.24,188.95,142.97,193.21z"/>
	</g>
</g>
</svg>
